{
 "cells": [
  {
   "cell_type": "markdown",
   "id": "672f5b31",
   "metadata": {},
   "source": [
    "This is a compilation of examples of uses of RSRS"
   ]
  },
  {
   "cell_type": "code",
   "execution_count": 36,
   "id": "e0ae5132",
   "metadata": {},
   "outputs": [
    {
     "data": {
      "text/plain": [
       "CompletedProcess(args=['chmod', '+x', 'run_test.sh'], returncode=0)"
      ]
     },
     "execution_count": 36,
     "metadata": {},
     "output_type": "execute_result"
    }
   ],
   "source": [
    "import json\n",
    "import numpy as np\n",
    "import subprocess\n",
    "\n",
    "pi = np.pi\n",
    "\n",
    "data_type_args = {\n",
    "    \"structured_operator_type\": \"BemppClLaplaceSingleLayer\",\n",
    "    \"precision\": \"Double\"\n",
    "}\n",
    "\n",
    "scenario_args = {\n",
    "    \"id_tols\": [1e-2, 1e-4, 1e-6, 1e-8],\n",
    "    \"dim_args\": [{\"Kappa\": pi}],\n",
    "    \"geometry_type\": \"SphereSurface\",\n",
    "}\n",
    "\n",
    "output_args = {\n",
    "    \"solve\": {\"True\": 1e-5},\n",
    "    \"plot\": True,\n",
    "    \"dense_errors\": False,\n",
    "    \"results_output\": \"All\"\n",
    "}\n",
    "\n",
    "rsrs_args = {\n",
    "    \"oversampling\": 8,\n",
    "    \"oversampling_diag_blocks\": 16,\n",
    "    \"initial_num_samples\": 420,\n",
    "    \"null_method\": \"Projection\",\n",
    "    \"near_block_extraction_method\": \"LuLstSq\",\n",
    "    \"diag_block_extraction_method\": \"LuLstSq\",\n",
    "    \"lu_pivot_method\": \"Lu\",\n",
    "    \"diag_pivot_method\": \"Lu\",\n",
    "    \"tol_null\": 1e-10,\n",
    "    \"tol_id\": 1e-2,\n",
    "    \"tol_ext_near\": 1e-10,\n",
    "    \"tol_diag_ext\": 1e-10,\n",
    "    \"min_rank\": 4,\n",
    "    \"hermitian\": True,\n",
    "    \"rank_picking\": \"Min\"\n",
    "}\n",
    "\n",
    "def json_for_bash(obj):\n",
    "    return json.dumps(obj).replace(\"'\", \"'\\\"'\\\"'\")\n",
    "\n",
    "data_type_args_json = json_for_bash(data_type_args)\n",
    "scenario_args_json = json_for_bash(scenario_args)\n",
    "output_args_json = json_for_bash(output_args)\n",
    "rsrs_args_json = \"null\" if rsrs_args is None else json_for_bash(rsrs_args)\n",
    "\n",
    "bash_script = f\"\"\"#!/bin/bash\n",
    "export OPENBLAS_NUM_THREADS=1\n",
    "cargo run --release '{data_type_args_json}' '{scenario_args_json}' '{rsrs_args_json}' '{output_args_json}'\n",
    "\"\"\"\n",
    "\n",
    "script_filename = \"run_test.sh\"\n",
    "with open(script_filename, \"w\") as f:\n",
    "    f.write(bash_script)\n",
    "\n",
    "subprocess.run([\"chmod\", \"+x\", script_filename], check=True)\n",
    "\n"
   ]
  },
  {
   "cell_type": "code",
   "execution_count": 37,
   "id": "3b940bb8",
   "metadata": {},
   "outputs": [
    {
     "name": "stdout",
     "output_type": "stream",
     "text": [
      "\u001b[1m\u001b[32m   Compiling\u001b[0m bempp-rsrs v0.0.1-dev (/Users/ignacia-fp/Research/Projects/rsrs-exps)\n",
      "\u001b[K\u001b[1m\u001b[32m    Finished\u001b[0m `release` profile [optimized + debuginfo] target(s) in 7.48s  \n",
      "\u001b[1m\u001b[33mwarning\u001b[0m\u001b[1m:\u001b[0m the following packages contain code that will be rejected by a future version of Rust: nom v3.2.1\n",
      "\u001b[1m\u001b[36mnote\u001b[0m\u001b[1m:\u001b[0m to see what the problems were, use the option `--future-incompat-report`, or run `cargo report future-incompatibilities --id 1`\n",
      "\u001b[1m\u001b[32m     Running\u001b[0m `target/release/bempp-rsrs '{\"structured_operator_type\": \"BemppClLaplaceSingleLayer\", \"precision\": \"Double\"}' '{\"id_tols\": [0.01, 0.0001, 1e-06, 1e-08], \"dim_args\": [{\"Kappa\": 3.141592653589793}], \"geometry_type\": \"SphereSurface\"}' '{\"oversampling\": 8, \"oversampling_diag_blocks\": 16, \"initial_num_samples\": 420, \"null_method\": \"Projection\", \"near_block_extraction_method\": \"LuLstSq\", \"diag_block_extraction_method\": \"LuLstSq\", \"lu_pivot_method\": \"Lu\", \"diag_pivot_method\": \"Lu\", \"tol_null\": 1e-10, \"tol_id\": 0.01, \"tol_ext_near\": 1e-10, \"tol_diag_ext\": 1e-10, \"min_rank\": 4, \"hermitian\": true, \"rank_picking\": \"Min\"}' '{\"solve\": {\"True\": 1e-05}, \"plot\": true, \"dense_errors\": false, \"results_output\": \"All\"}'`\n",
      "\n",
      "Number of dofs: 622\n",
      "/Users/ignacia-fp/.pyenv/versions/3.10.17/envs/kifmm-bempp-env/lib/python3.10/site-packages/bempp_cl/api/assembly/discrete_boundary_operator.py:619: SparseEfficiencyWarning: splu converted its input to CSC format\n",
      "  solver = solver_interface(actual_mat)\n",
      "GMRES converged in 29 iterations with relative residual +7.791683660973216E-6.\n",
      "Setup octree with 622 points and maximum level 2\n",
      "Test: 622 points, tol:0.01\n",
      "%%%%%%%%%%%%%%%%%%%%%%%%%%%%%%%%%%%%%%%%%%%%%%%%%\n",
      "\n",
      "Computing Indices...\n",
      "\n",
      "New 64 boxes, and active indices: 622\n",
      "Current Level: 2. Indices computed in 76.542µs\n",
      "\n",
      "\n",
      "Number of merged boxes: 0\n",
      "\n",
      "Sampling step. Sampling new 420 vectors\n",
      "Sample generation: 33µs\n",
      "Multiplication: 92.292µs (3.076µs per sample)\n",
      "Filling: 5.916µs\n",
      "Current number of samples: 1\n",
      "\n",
      "Sample generation: 175.043µs\n",
      "Multiplication: 2.216039ms (73.867µs per sample)\n",
      "Filling: 82.54µs\n",
      "Current number of samples: 31\n",
      "\n",
      "Sample generation: 171.085µs\n",
      "Multiplication: 2.133126ms (71.104µs per sample)\n",
      "Filling: 108.083µs\n",
      "Current number of samples: 61\n",
      "\n",
      "Sample generation: 170.627µs\n",
      "Multiplication: 2.130962ms (71.032µs per sample)\n",
      "Filling: 107.625µs\n",
      "Current number of samples: 91\n",
      "\n",
      "Sample generation: 185.42µs\n",
      "Multiplication: 2.149747ms (71.658µs per sample)\n",
      "Filling: 77.585µs\n",
      "Current number of samples: 121\n",
      "\n",
      "Sample generation: 173.376µs\n",
      "Multiplication: 2.133623ms (71.12µs per sample)\n",
      "Filling: 83.331µs\n",
      "Current number of samples: 151\n",
      "\n",
      "Sample generation: 172.376µs\n",
      "Multiplication: 2.129291ms (70.976µs per sample)\n",
      "Filling: 96.416µs\n",
      "Current number of samples: 181\n",
      "\n",
      "Sample generation: 176.711µs\n",
      "Multiplication: 2.175539ms (72.517µs per sample)\n",
      "Filling: 107.837µs\n",
      "Current number of samples: 211\n",
      "\n",
      "Sample generation: 171.416µs\n",
      "Multiplication: 2.163038ms (72.101µs per sample)\n",
      "Filling: 87.872µs\n",
      "Current number of samples: 241\n",
      "\n",
      "Sample generation: 173.249µs\n",
      "Multiplication: 2.123875ms (70.795µs per sample)\n",
      "Filling: 114.336µs\n",
      "Current number of samples: 271\n",
      "\n",
      "Sample generation: 172.416µs\n",
      "Multiplication: 2.118335ms (70.611µs per sample)\n",
      "Filling: 138.418µs\n",
      "Current number of samples: 301\n",
      "\n",
      "Sample generation: 183.04µs\n",
      "Multiplication: 2.167457ms (72.248µs per sample)\n",
      "Filling: 94.291µs\n",
      "Current number of samples: 331\n",
      "\n",
      "Sample generation: 172.46µs\n",
      "Multiplication: 2.11754ms (70.584µs per sample)\n",
      "Filling: 108.039µs\n",
      "Current number of samples: 361\n",
      "\n",
      "Sample generation: 172.043µs\n",
      "Multiplication: 2.11704ms (70.568µs per sample)\n",
      "Filling: 117.21µs\n",
      "Current number of samples: 391\n",
      "\n",
      "Total samples: 420\n",
      "Sampling time: 34ms\n",
      "\n",
      "Active samples: 197\n",
      "\n",
      "Starting ID step\n",
      "ID calculations in 19.273583ms\n",
      "ID postprocessing in 47.917µs\n",
      "ID step in 19.384208ms\n",
      "ID updated in 971.917µs\n",
      "\n",
      "Start LU step\n",
      "Batches computed in 59µs\n",
      "Active samples vs total samples: 197, 420\n",
      "LU step in 13ms, with updates in 0ms\n",
      "\n",
      "End level cycle. Summary:\n",
      "-------------------------\n",
      "Elapsed time: 0 s\n",
      "Sketch Points: 252\n",
      "Residual Points: 370\n",
      "Current Number of Samples: 420 of which 197 are active\n",
      "\n",
      "-------------------------\n",
      "\n",
      "Reached lower level: 1\n",
      "Minimum samples: 284\n",
      "Extra active samples: 87. Min samples: 284\n",
      "Update times: 0ms, 5ms\n",
      "Tree cycle elapsed time: 0 s\n",
      "Extracting diagonal blocks with 284 active samples\n",
      "Extraction time: 0s\n",
      "\n",
      "Total elapsed time: 76.72725ms (34ms for sampling, 42ms for RSRS), with 284 active samples\n",
      "\n",
      "%%%%%%%%%%%%%%%%%%%%%%%%%%%%%%%%%%%%%%%%%%%%%%%%%\n",
      "\n",
      "GMRES converged in 5 iterations with relative residual +4.893436273796624E-7.\n",
      "LU: 13\n",
      "ID: 19\n",
      "Other: 0\n",
      "Update ID: 0\n",
      "Update LU: 5\n",
      "Extraction: 1\n",
      "Total RSRS: 38\n",
      "Total Sampling: 34\n",
      "           \u001b[37m•\u001b[0m\u001b[37m•\u001b[0m\u001b[31m•\u001b[0m\u001b[31m•\u001b[0m\u001b[31m•\u001b[0m             \n",
      "       \u001b[37m•\u001b[0m\u001b[37m•\u001b[0m\u001b[37m•\u001b[0m\u001b[37m•\u001b[0m\u001b[37m•\u001b[0m\u001b[37m•\u001b[0m\u001b[31m•\u001b[0m\u001b[31m•\u001b[0m\u001b[31m•\u001b[0m\u001b[31m•\u001b[0m\u001b[31m•\u001b[0m\u001b[31m•\u001b[0m\u001b[31m•\u001b[0m         \n",
      "     \u001b[37m•\u001b[0m\u001b[37m•\u001b[0m\u001b[37m•\u001b[0m\u001b[37m•\u001b[0m\u001b[37m•\u001b[0m\u001b[37m•\u001b[0m\u001b[37m•\u001b[0m\u001b[37m•\u001b[0m\u001b[31m•\u001b[0m\u001b[31m•\u001b[0m\u001b[31m•\u001b[0m\u001b[31m•\u001b[0m\u001b[31m•\u001b[0m\u001b[31m•\u001b[0m\u001b[31m•\u001b[0m\u001b[31m•\u001b[0m\u001b[31m•\u001b[0m       \u001b[31m•\u001b[0m LU 18.06% (13)\n",
      "    \u001b[37m•\u001b[0m\u001b[37m•\u001b[0m\u001b[37m•\u001b[0m\u001b[37m•\u001b[0m\u001b[37m•\u001b[0m\u001b[37m•\u001b[0m\u001b[37m•\u001b[0m\u001b[37m•\u001b[0m\u001b[37m•\u001b[0m\u001b[31m•\u001b[0m\u001b[31m•\u001b[0m\u001b[31m•\u001b[0m\u001b[31m•\u001b[0m\u001b[31m•\u001b[0m\u001b[31m•\u001b[0m\u001b[31m•\u001b[0m\u001b[31m•\u001b[0m\u001b[31m•\u001b[0m\u001b[31m•\u001b[0m      \n",
      "  \u001b[37m•\u001b[0m\u001b[37m•\u001b[0m\u001b[37m•\u001b[0m\u001b[37m•\u001b[0m\u001b[37m•\u001b[0m\u001b[37m•\u001b[0m\u001b[37m•\u001b[0m\u001b[37m•\u001b[0m\u001b[37m•\u001b[0m\u001b[37m•\u001b[0m\u001b[37m•\u001b[0m\u001b[31m•\u001b[0m\u001b[31m•\u001b[0m\u001b[31m•\u001b[0m\u001b[31m•\u001b[0m\u001b[31m•\u001b[0m\u001b[31m•\u001b[0m\u001b[31m•\u001b[0m\u001b[31m•\u001b[0m\u001b[31m•\u001b[0m\u001b[31m•\u001b[0m\u001b[31m•\u001b[0m\u001b[32m•\u001b[0m    \u001b[32m•\u001b[0m ID 26.39% (19)\n",
      "  \u001b[37m•\u001b[0m\u001b[37m•\u001b[0m\u001b[37m•\u001b[0m\u001b[37m•\u001b[0m\u001b[37m•\u001b[0m\u001b[37m•\u001b[0m\u001b[37m•\u001b[0m\u001b[37m•\u001b[0m\u001b[37m•\u001b[0m\u001b[37m•\u001b[0m\u001b[37m•\u001b[0m\u001b[31m•\u001b[0m\u001b[31m•\u001b[0m\u001b[31m•\u001b[0m\u001b[31m•\u001b[0m\u001b[31m•\u001b[0m\u001b[31m•\u001b[0m\u001b[31m•\u001b[0m\u001b[31m•\u001b[0m\u001b[31m•\u001b[0m\u001b[32m•\u001b[0m\u001b[32m•\u001b[0m\u001b[32m•\u001b[0m    \n",
      " \u001b[37m•\u001b[0m\u001b[37m•\u001b[0m\u001b[37m•\u001b[0m\u001b[37m•\u001b[0m\u001b[37m•\u001b[0m\u001b[37m•\u001b[0m\u001b[37m•\u001b[0m\u001b[37m•\u001b[0m\u001b[37m•\u001b[0m\u001b[37m•\u001b[0m\u001b[37m•\u001b[0m\u001b[37m•\u001b[0m\u001b[31m•\u001b[0m\u001b[31m•\u001b[0m\u001b[31m•\u001b[0m\u001b[31m•\u001b[0m\u001b[31m•\u001b[0m\u001b[31m•\u001b[0m\u001b[31m•\u001b[0m\u001b[32m•\u001b[0m\u001b[32m•\u001b[0m\u001b[32m•\u001b[0m\u001b[32m•\u001b[0m\u001b[32m•\u001b[0m\u001b[32m•\u001b[0m   \u001b[34m•\u001b[0m Other 0.00% (0)\n",
      " \u001b[37m•\u001b[0m\u001b[37m•\u001b[0m\u001b[37m•\u001b[0m\u001b[37m•\u001b[0m\u001b[37m•\u001b[0m\u001b[37m•\u001b[0m\u001b[37m•\u001b[0m\u001b[37m•\u001b[0m\u001b[37m•\u001b[0m\u001b[37m•\u001b[0m\u001b[37m•\u001b[0m\u001b[37m•\u001b[0m\u001b[31m•\u001b[0m\u001b[31m•\u001b[0m\u001b[31m•\u001b[0m\u001b[31m•\u001b[0m\u001b[31m•\u001b[0m\u001b[32m•\u001b[0m\u001b[32m•\u001b[0m\u001b[32m•\u001b[0m\u001b[32m•\u001b[0m\u001b[32m•\u001b[0m\u001b[32m•\u001b[0m\u001b[32m•\u001b[0m\u001b[32m•\u001b[0m   \n",
      "\u001b[37m•\u001b[0m\u001b[37m•\u001b[0m\u001b[37m•\u001b[0m\u001b[37m•\u001b[0m\u001b[37m•\u001b[0m\u001b[37m•\u001b[0m\u001b[37m•\u001b[0m\u001b[37m•\u001b[0m\u001b[37m•\u001b[0m\u001b[37m•\u001b[0m\u001b[37m•\u001b[0m\u001b[37m•\u001b[0m\u001b[37m•\u001b[0m\u001b[31m•\u001b[0m\u001b[31m•\u001b[0m\u001b[31m•\u001b[0m\u001b[32m•\u001b[0m\u001b[32m•\u001b[0m\u001b[32m•\u001b[0m\u001b[32m•\u001b[0m\u001b[32m•\u001b[0m\u001b[32m•\u001b[0m\u001b[32m•\u001b[0m\u001b[32m•\u001b[0m\u001b[32m•\u001b[0m\u001b[32m•\u001b[0m\u001b[32m•\u001b[0m  \u001b[33m•\u001b[0m Update ID 0.00% (0)\n",
      "\u001b[37m•\u001b[0m\u001b[37m•\u001b[0m\u001b[37m•\u001b[0m\u001b[37m•\u001b[0m\u001b[37m•\u001b[0m\u001b[37m•\u001b[0m\u001b[37m•\u001b[0m\u001b[37m•\u001b[0m\u001b[37m•\u001b[0m\u001b[37m•\u001b[0m\u001b[37m•\u001b[0m\u001b[37m•\u001b[0m\u001b[37m•\u001b[0m\u001b[36m•\u001b[0m\u001b[32m•\u001b[0m\u001b[32m•\u001b[0m\u001b[32m•\u001b[0m\u001b[32m•\u001b[0m\u001b[32m•\u001b[0m\u001b[32m•\u001b[0m\u001b[32m•\u001b[0m\u001b[32m•\u001b[0m\u001b[32m•\u001b[0m\u001b[32m•\u001b[0m\u001b[32m•\u001b[0m\u001b[32m•\u001b[0m\u001b[32m•\u001b[0m  \n",
      "\u001b[37m•\u001b[0m\u001b[37m•\u001b[0m\u001b[37m•\u001b[0m\u001b[37m•\u001b[0m\u001b[37m•\u001b[0m\u001b[37m•\u001b[0m\u001b[37m•\u001b[0m\u001b[37m•\u001b[0m\u001b[37m•\u001b[0m\u001b[37m•\u001b[0m\u001b[37m•\u001b[0m\u001b[37m•\u001b[0m\u001b[37m•\u001b[0m\u001b[36m•\u001b[0m\u001b[32m•\u001b[0m\u001b[32m•\u001b[0m\u001b[32m•\u001b[0m\u001b[32m•\u001b[0m\u001b[32m•\u001b[0m\u001b[32m•\u001b[0m\u001b[32m•\u001b[0m\u001b[32m•\u001b[0m\u001b[32m•\u001b[0m\u001b[32m•\u001b[0m\u001b[32m•\u001b[0m\u001b[32m•\u001b[0m\u001b[32m•\u001b[0m  \u001b[36m•\u001b[0m Update LU 6.94% (5)\n",
      " \u001b[37m•\u001b[0m\u001b[37m•\u001b[0m\u001b[37m•\u001b[0m\u001b[37m•\u001b[0m\u001b[37m•\u001b[0m\u001b[37m•\u001b[0m\u001b[37m•\u001b[0m\u001b[37m•\u001b[0m\u001b[37m•\u001b[0m\u001b[37m•\u001b[0m\u001b[37m•\u001b[0m\u001b[37m•\u001b[0m\u001b[36m•\u001b[0m\u001b[32m•\u001b[0m\u001b[32m•\u001b[0m\u001b[32m•\u001b[0m\u001b[32m•\u001b[0m\u001b[32m•\u001b[0m\u001b[32m•\u001b[0m\u001b[32m•\u001b[0m\u001b[32m•\u001b[0m\u001b[32m•\u001b[0m\u001b[32m•\u001b[0m\u001b[32m•\u001b[0m\u001b[32m•\u001b[0m   \n",
      " \u001b[37m•\u001b[0m\u001b[37m•\u001b[0m\u001b[37m•\u001b[0m\u001b[37m•\u001b[0m\u001b[37m•\u001b[0m\u001b[37m•\u001b[0m\u001b[37m•\u001b[0m\u001b[37m•\u001b[0m\u001b[37m•\u001b[0m\u001b[37m•\u001b[0m\u001b[37m•\u001b[0m\u001b[37m•\u001b[0m\u001b[36m•\u001b[0m\u001b[36m•\u001b[0m\u001b[32m•\u001b[0m\u001b[32m•\u001b[0m\u001b[32m•\u001b[0m\u001b[32m•\u001b[0m\u001b[32m•\u001b[0m\u001b[32m•\u001b[0m\u001b[32m•\u001b[0m\u001b[32m•\u001b[0m\u001b[32m•\u001b[0m\u001b[32m•\u001b[0m\u001b[32m•\u001b[0m   \u001b[37m•\u001b[0m Sampling 47.22% (34)\n",
      "  \u001b[37m•\u001b[0m\u001b[37m•\u001b[0m\u001b[37m•\u001b[0m\u001b[37m•\u001b[0m\u001b[37m•\u001b[0m\u001b[37m•\u001b[0m\u001b[37m•\u001b[0m\u001b[37m•\u001b[0m\u001b[37m•\u001b[0m\u001b[37m•\u001b[0m\u001b[37m•\u001b[0m\u001b[36m•\u001b[0m\u001b[36m•\u001b[0m\u001b[32m•\u001b[0m\u001b[32m•\u001b[0m\u001b[32m•\u001b[0m\u001b[32m•\u001b[0m\u001b[32m•\u001b[0m\u001b[32m•\u001b[0m\u001b[32m•\u001b[0m\u001b[32m•\u001b[0m\u001b[32m•\u001b[0m\u001b[32m•\u001b[0m    \n",
      "  \u001b[37m•\u001b[0m\u001b[37m•\u001b[0m\u001b[37m•\u001b[0m\u001b[37m•\u001b[0m\u001b[37m•\u001b[0m\u001b[37m•\u001b[0m\u001b[37m•\u001b[0m\u001b[37m•\u001b[0m\u001b[37m•\u001b[0m\u001b[37m•\u001b[0m\u001b[37m•\u001b[0m\u001b[36m•\u001b[0m\u001b[36m•\u001b[0m\u001b[32m•\u001b[0m\u001b[32m•\u001b[0m\u001b[32m•\u001b[0m\u001b[32m•\u001b[0m\u001b[32m•\u001b[0m\u001b[32m•\u001b[0m\u001b[32m•\u001b[0m\u001b[32m•\u001b[0m\u001b[32m•\u001b[0m\u001b[32m•\u001b[0m    \u001b[38;2;128;128;128m•\u001b[0m Extraction Sampling 0.00% (0)\n",
      "    \u001b[37m•\u001b[0m\u001b[37m•\u001b[0m\u001b[37m•\u001b[0m\u001b[37m•\u001b[0m\u001b[37m•\u001b[0m\u001b[37m•\u001b[0m\u001b[37m•\u001b[0m\u001b[37m•\u001b[0m\u001b[37m•\u001b[0m\u001b[36m•\u001b[0m\u001b[36m•\u001b[0m\u001b[36m•\u001b[0m\u001b[32m•\u001b[0m\u001b[32m•\u001b[0m\u001b[32m•\u001b[0m\u001b[32m•\u001b[0m\u001b[32m•\u001b[0m\u001b[32m•\u001b[0m\u001b[32m•\u001b[0m      \n",
      "     \u001b[37m•\u001b[0m\u001b[37m•\u001b[0m\u001b[37m•\u001b[0m\u001b[37m•\u001b[0m\u001b[37m•\u001b[0m\u001b[37m•\u001b[0m\u001b[37m•\u001b[0m\u001b[37m•\u001b[0m\u001b[36m•\u001b[0m\u001b[36m•\u001b[0m\u001b[36m•\u001b[0m\u001b[32m•\u001b[0m\u001b[32m•\u001b[0m\u001b[32m•\u001b[0m\u001b[32m•\u001b[0m\u001b[32m•\u001b[0m\u001b[32m•\u001b[0m       \u001b[35m•\u001b[0m Extraction 1.39% (1)\n",
      "       \u001b[37m•\u001b[0m\u001b[37m•\u001b[0m\u001b[37m•\u001b[0m\u001b[37m•\u001b[0m\u001b[37m•\u001b[0m\u001b[37m•\u001b[0m\u001b[36m•\u001b[0m\u001b[36m•\u001b[0m\u001b[36m•\u001b[0m\u001b[32m•\u001b[0m\u001b[32m•\u001b[0m\u001b[32m•\u001b[0m\u001b[32m•\u001b[0m         \n",
      "           \u001b[37m•\u001b[0m\u001b[37m•\u001b[0m\u001b[36m•\u001b[0m\u001b[36m•\u001b[0m\u001b[36m•\u001b[0m             \n",
      "Test: 622 points, tol:0.0001\n",
      "%%%%%%%%%%%%%%%%%%%%%%%%%%%%%%%%%%%%%%%%%%%%%%%%%\n",
      "\n",
      "Computing Indices...\n",
      "\n",
      "New 64 boxes, and active indices: 622\n",
      "Current Level: 2. Indices computed in 62.709µs\n",
      "\n",
      "\n",
      "Number of merged boxes: 0\n",
      "\n",
      "Sampling step. Sampling new 420 vectors\n",
      "Sample generation: 8.25µs\n",
      "Multiplication: 96.666µs (3.222µs per sample)\n",
      "Filling: 4.542µs\n",
      "Current number of samples: 1\n",
      "\n",
      "Sample generation: 176.917µs\n",
      "Multiplication: 2.163664ms (72.122µs per sample)\n",
      "Filling: 87.46µs\n",
      "Current number of samples: 31\n",
      "\n",
      "Sample generation: 171.789µs\n",
      "Multiplication: 2.108082ms (70.269µs per sample)\n",
      "Filling: 83.875µs\n",
      "Current number of samples: 61\n",
      "\n",
      "Sample generation: 177.202µs\n",
      "Multiplication: 2.233462ms (74.448µs per sample)\n",
      "Filling: 105.043µs\n",
      "Current number of samples: 91\n",
      "\n",
      "Sample generation: 172.461µs\n",
      "Multiplication: 2.127292ms (70.909µs per sample)\n",
      "Filling: 87.627µs\n",
      "Current number of samples: 121\n",
      "\n",
      "Sample generation: 179.915µs\n",
      "Multiplication: 2.190167ms (73.005µs per sample)\n",
      "Filling: 90.834µs\n",
      "Current number of samples: 151\n",
      "\n",
      "Sample generation: 180.333µs\n",
      "Multiplication: 2.267709ms (75.59µs per sample)\n",
      "Filling: 92.334µs\n",
      "Current number of samples: 181\n",
      "\n",
      "Sample generation: 176.626µs\n",
      "Multiplication: 2.274792ms (75.826µs per sample)\n",
      "Filling: 117.914µs\n",
      "Current number of samples: 211\n",
      "\n",
      "Sample generation: 170.416µs\n",
      "Multiplication: 2.124293ms (70.809µs per sample)\n",
      "Filling: 95.918µs\n",
      "Current number of samples: 241\n",
      "\n",
      "Sample generation: 170.212µs\n",
      "Multiplication: 2.117962ms (70.598µs per sample)\n",
      "Filling: 129.584µs\n",
      "Current number of samples: 271\n",
      "\n",
      "Sample generation: 173.667µs\n",
      "Multiplication: 2.174289ms (72.476µs per sample)\n",
      "Filling: 100.788µs\n",
      "Current number of samples: 301\n",
      "\n",
      "Sample generation: 182.581µs\n",
      "Multiplication: 2.268125ms (75.604µs per sample)\n",
      "Filling: 110.626µs\n",
      "Current number of samples: 331\n",
      "\n",
      "Sample generation: 181.916µs\n",
      "Multiplication: 2.212123ms (73.737µs per sample)\n",
      "Filling: 96.96µs\n",
      "Current number of samples: 361\n",
      "\n",
      "Sample generation: 173.792µs\n",
      "Multiplication: 2.122376ms (70.745µs per sample)\n",
      "Filling: 104.58µs\n",
      "Current number of samples: 391\n",
      "\n",
      "Total samples: 420\n",
      "Sampling time: 34ms\n",
      "\n",
      "Active samples: 197\n",
      "\n",
      "Starting ID step\n",
      "ID calculations in 2.657709ms\n",
      "ID postprocessing in 34.209µs\n",
      "ID step in 2.754417ms\n",
      "ID updated in 711.709µs\n",
      "\n",
      "Start LU step\n",
      "Batches computed in 48.5µs\n",
      "Active samples vs total samples: 197, 420\n",
      "LU step in 11ms, with updates in 0ms\n",
      "\n",
      "End level cycle. Summary:\n",
      "-------------------------\n",
      "Elapsed time: 0 s\n",
      "Sketch Points: 510\n",
      "Residual Points: 112\n",
      "Current Number of Samples: 420 of which 197 are active\n",
      "\n",
      "-------------------------\n",
      "\n",
      "Reached lower level: 1\n",
      "Minimum samples: 590\n",
      "Sampling step. Sampling new 170 vectors\n",
      "Sample generation: 7.375µs\n",
      "Multiplication: 110.833µs (3.694µs per sample)\n",
      "Filling: 5.708µs\n",
      "Current number of samples: 1\n",
      "\n",
      "Sample generation: 174.212µs\n",
      "Multiplication: 2.123291ms (70.776µs per sample)\n",
      "Filling: 90.46µs\n",
      "Current number of samples: 31\n",
      "\n",
      "Sample generation: 176.374µs\n",
      "Multiplication: 2.186749ms (72.891µs per sample)\n",
      "Filling: 78.417µs\n",
      "Current number of samples: 61\n",
      "\n",
      "Sample generation: 173.749µs\n",
      "Multiplication: 2.164002ms (72.133µs per sample)\n",
      "Filling: 86.587µs\n",
      "Current number of samples: 91\n",
      "\n",
      "Sample generation: 172.29µs\n",
      "Multiplication: 2.10954ms (70.318µs per sample)\n",
      "Filling: 92.538µs\n",
      "Current number of samples: 121\n",
      "\n",
      "Sample generation: 172.499µs\n",
      "Multiplication: 2.104038ms (70.134µs per sample)\n",
      "Filling: 93.333µs\n",
      "Current number of samples: 151\n",
      "\n",
      "Total samples: 590\n",
      "Sampling time: 15ms\n",
      "\n",
      "Extra active samples: 393. Min samples: 590\n",
      "Update times: 1ms, 12ms\n",
      "Tree cycle elapsed time: 0 s\n",
      "Extracting diagonal blocks with 590 active samples\n",
      "Extraction time: 0s\n",
      "\n",
      "Total elapsed time: 89.789083ms (49ms for sampling, 40ms for RSRS), with 590 active samples\n",
      "\n",
      "%%%%%%%%%%%%%%%%%%%%%%%%%%%%%%%%%%%%%%%%%%%%%%%%%\n",
      "\n",
      "GMRES converged in 2 iterations with relative residual +3.7861964148549546E-6.\n",
      "LU: 11\n",
      "ID: 2\n",
      "Other: 0\n",
      "Update ID: 1\n",
      "Update LU: 12\n",
      "Extraction: 9\n",
      "Total RSRS: 35\n",
      "Total Sampling: 49\n",
      "           \u001b[35m•\u001b[0m\u001b[35m•\u001b[0m\u001b[31m•\u001b[0m\u001b[31m•\u001b[0m\u001b[31m•\u001b[0m             \n",
      "       \u001b[35m•\u001b[0m\u001b[35m•\u001b[0m\u001b[35m•\u001b[0m\u001b[35m•\u001b[0m\u001b[35m•\u001b[0m\u001b[35m•\u001b[0m\u001b[31m•\u001b[0m\u001b[31m•\u001b[0m\u001b[31m•\u001b[0m\u001b[31m•\u001b[0m\u001b[31m•\u001b[0m\u001b[31m•\u001b[0m\u001b[31m•\u001b[0m         \n",
      "     \u001b[38;2;128;128;128m•\u001b[0m\u001b[38;2;128;128;128m•\u001b[0m\u001b[38;2;128;128;128m•\u001b[0m\u001b[35m•\u001b[0m\u001b[35m•\u001b[0m\u001b[35m•\u001b[0m\u001b[35m•\u001b[0m\u001b[35m•\u001b[0m\u001b[31m•\u001b[0m\u001b[31m•\u001b[0m\u001b[31m•\u001b[0m\u001b[31m•\u001b[0m\u001b[31m•\u001b[0m\u001b[31m•\u001b[0m\u001b[31m•\u001b[0m\u001b[31m•\u001b[0m\u001b[32m•\u001b[0m       \u001b[31m•\u001b[0m LU 13.10% (11)\n",
      "    \u001b[38;2;128;128;128m•\u001b[0m\u001b[38;2;128;128;128m•\u001b[0m\u001b[38;2;128;128;128m•\u001b[0m\u001b[38;2;128;128;128m•\u001b[0m\u001b[38;2;128;128;128m•\u001b[0m\u001b[35m•\u001b[0m\u001b[35m•\u001b[0m\u001b[35m•\u001b[0m\u001b[35m•\u001b[0m\u001b[31m•\u001b[0m\u001b[31m•\u001b[0m\u001b[31m•\u001b[0m\u001b[31m•\u001b[0m\u001b[31m•\u001b[0m\u001b[31m•\u001b[0m\u001b[31m•\u001b[0m\u001b[32m•\u001b[0m\u001b[32m•\u001b[0m\u001b[33m•\u001b[0m      \n",
      "  \u001b[38;2;128;128;128m•\u001b[0m\u001b[38;2;128;128;128m•\u001b[0m\u001b[38;2;128;128;128m•\u001b[0m\u001b[38;2;128;128;128m•\u001b[0m\u001b[38;2;128;128;128m•\u001b[0m\u001b[38;2;128;128;128m•\u001b[0m\u001b[38;2;128;128;128m•\u001b[0m\u001b[38;2;128;128;128m•\u001b[0m\u001b[35m•\u001b[0m\u001b[35m•\u001b[0m\u001b[35m•\u001b[0m\u001b[31m•\u001b[0m\u001b[31m•\u001b[0m\u001b[31m•\u001b[0m\u001b[31m•\u001b[0m\u001b[31m•\u001b[0m\u001b[31m•\u001b[0m\u001b[32m•\u001b[0m\u001b[32m•\u001b[0m\u001b[33m•\u001b[0m\u001b[36m•\u001b[0m\u001b[36m•\u001b[0m\u001b[36m•\u001b[0m    \u001b[32m•\u001b[0m ID 2.38% (2)\n",
      "  \u001b[38;2;128;128;128m•\u001b[0m\u001b[38;2;128;128;128m•\u001b[0m\u001b[38;2;128;128;128m•\u001b[0m\u001b[38;2;128;128;128m•\u001b[0m\u001b[38;2;128;128;128m•\u001b[0m\u001b[38;2;128;128;128m•\u001b[0m\u001b[38;2;128;128;128m•\u001b[0m\u001b[38;2;128;128;128m•\u001b[0m\u001b[35m•\u001b[0m\u001b[35m•\u001b[0m\u001b[35m•\u001b[0m\u001b[31m•\u001b[0m\u001b[31m•\u001b[0m\u001b[31m•\u001b[0m\u001b[31m•\u001b[0m\u001b[31m•\u001b[0m\u001b[32m•\u001b[0m\u001b[33m•\u001b[0m\u001b[36m•\u001b[0m\u001b[36m•\u001b[0m\u001b[36m•\u001b[0m\u001b[36m•\u001b[0m\u001b[36m•\u001b[0m    \n",
      " \u001b[38;2;128;128;128m•\u001b[0m\u001b[38;2;128;128;128m•\u001b[0m\u001b[38;2;128;128;128m•\u001b[0m\u001b[38;2;128;128;128m•\u001b[0m\u001b[38;2;128;128;128m•\u001b[0m\u001b[38;2;128;128;128m•\u001b[0m\u001b[38;2;128;128;128m•\u001b[0m\u001b[38;2;128;128;128m•\u001b[0m\u001b[38;2;128;128;128m•\u001b[0m\u001b[38;2;128;128;128m•\u001b[0m\u001b[35m•\u001b[0m\u001b[35m•\u001b[0m\u001b[31m•\u001b[0m\u001b[31m•\u001b[0m\u001b[31m•\u001b[0m\u001b[31m•\u001b[0m\u001b[32m•\u001b[0m\u001b[33m•\u001b[0m\u001b[36m•\u001b[0m\u001b[36m•\u001b[0m\u001b[36m•\u001b[0m\u001b[36m•\u001b[0m\u001b[36m•\u001b[0m\u001b[36m•\u001b[0m\u001b[36m•\u001b[0m   \u001b[34m•\u001b[0m Other 0.00% (0)\n",
      " \u001b[38;2;128;128;128m•\u001b[0m\u001b[38;2;128;128;128m•\u001b[0m\u001b[38;2;128;128;128m•\u001b[0m\u001b[38;2;128;128;128m•\u001b[0m\u001b[38;2;128;128;128m•\u001b[0m\u001b[38;2;128;128;128m•\u001b[0m\u001b[38;2;128;128;128m•\u001b[0m\u001b[38;2;128;128;128m•\u001b[0m\u001b[38;2;128;128;128m•\u001b[0m\u001b[38;2;128;128;128m•\u001b[0m\u001b[38;2;128;128;128m•\u001b[0m\u001b[35m•\u001b[0m\u001b[31m•\u001b[0m\u001b[31m•\u001b[0m\u001b[31m•\u001b[0m\u001b[33m•\u001b[0m\u001b[36m•\u001b[0m\u001b[36m•\u001b[0m\u001b[36m•\u001b[0m\u001b[36m•\u001b[0m\u001b[36m•\u001b[0m\u001b[36m•\u001b[0m\u001b[36m•\u001b[0m\u001b[36m•\u001b[0m\u001b[36m•\u001b[0m   \n",
      "\u001b[38;2;128;128;128m•\u001b[0m\u001b[38;2;128;128;128m•\u001b[0m\u001b[38;2;128;128;128m•\u001b[0m\u001b[38;2;128;128;128m•\u001b[0m\u001b[38;2;128;128;128m•\u001b[0m\u001b[38;2;128;128;128m•\u001b[0m\u001b[38;2;128;128;128m•\u001b[0m\u001b[38;2;128;128;128m•\u001b[0m\u001b[38;2;128;128;128m•\u001b[0m\u001b[38;2;128;128;128m•\u001b[0m\u001b[38;2;128;128;128m•\u001b[0m\u001b[38;2;128;128;128m•\u001b[0m\u001b[38;2;128;128;128m•\u001b[0m\u001b[31m•\u001b[0m\u001b[31m•\u001b[0m\u001b[36m•\u001b[0m\u001b[36m•\u001b[0m\u001b[36m•\u001b[0m\u001b[36m•\u001b[0m\u001b[36m•\u001b[0m\u001b[36m•\u001b[0m\u001b[36m•\u001b[0m\u001b[36m•\u001b[0m\u001b[36m•\u001b[0m\u001b[36m•\u001b[0m\u001b[36m•\u001b[0m\u001b[36m•\u001b[0m  \u001b[33m•\u001b[0m Update ID 1.19% (1)\n",
      "\u001b[38;2;128;128;128m•\u001b[0m\u001b[38;2;128;128;128m•\u001b[0m\u001b[38;2;128;128;128m•\u001b[0m\u001b[38;2;128;128;128m•\u001b[0m\u001b[38;2;128;128;128m•\u001b[0m\u001b[38;2;128;128;128m•\u001b[0m\u001b[38;2;128;128;128m•\u001b[0m\u001b[38;2;128;128;128m•\u001b[0m\u001b[38;2;128;128;128m•\u001b[0m\u001b[38;2;128;128;128m•\u001b[0m\u001b[38;2;128;128;128m•\u001b[0m\u001b[38;2;128;128;128m•\u001b[0m\u001b[38;2;128;128;128m•\u001b[0m\u001b[37m•\u001b[0m\u001b[36m•\u001b[0m\u001b[36m•\u001b[0m\u001b[36m•\u001b[0m\u001b[36m•\u001b[0m\u001b[36m•\u001b[0m\u001b[36m•\u001b[0m\u001b[36m•\u001b[0m\u001b[36m•\u001b[0m\u001b[36m•\u001b[0m\u001b[36m•\u001b[0m\u001b[36m•\u001b[0m\u001b[36m•\u001b[0m\u001b[36m•\u001b[0m  \n",
      "\u001b[38;2;128;128;128m•\u001b[0m\u001b[38;2;128;128;128m•\u001b[0m\u001b[38;2;128;128;128m•\u001b[0m\u001b[38;2;128;128;128m•\u001b[0m\u001b[38;2;128;128;128m•\u001b[0m\u001b[38;2;128;128;128m•\u001b[0m\u001b[38;2;128;128;128m•\u001b[0m\u001b[38;2;128;128;128m•\u001b[0m\u001b[38;2;128;128;128m•\u001b[0m\u001b[37m•\u001b[0m\u001b[37m•\u001b[0m\u001b[37m•\u001b[0m\u001b[37m•\u001b[0m\u001b[37m•\u001b[0m\u001b[37m•\u001b[0m\u001b[37m•\u001b[0m\u001b[36m•\u001b[0m\u001b[36m•\u001b[0m\u001b[36m•\u001b[0m\u001b[36m•\u001b[0m\u001b[36m•\u001b[0m\u001b[36m•\u001b[0m\u001b[36m•\u001b[0m\u001b[36m•\u001b[0m\u001b[36m•\u001b[0m\u001b[36m•\u001b[0m\u001b[36m•\u001b[0m  \u001b[36m•\u001b[0m Update LU 14.29% (12)\n",
      " \u001b[38;2;128;128;128m•\u001b[0m\u001b[38;2;128;128;128m•\u001b[0m\u001b[38;2;128;128;128m•\u001b[0m\u001b[38;2;128;128;128m•\u001b[0m\u001b[37m•\u001b[0m\u001b[37m•\u001b[0m\u001b[37m•\u001b[0m\u001b[37m•\u001b[0m\u001b[37m•\u001b[0m\u001b[37m•\u001b[0m\u001b[37m•\u001b[0m\u001b[37m•\u001b[0m\u001b[37m•\u001b[0m\u001b[37m•\u001b[0m\u001b[37m•\u001b[0m\u001b[37m•\u001b[0m\u001b[37m•\u001b[0m\u001b[37m•\u001b[0m\u001b[36m•\u001b[0m\u001b[36m•\u001b[0m\u001b[36m•\u001b[0m\u001b[36m•\u001b[0m\u001b[36m•\u001b[0m\u001b[36m•\u001b[0m\u001b[36m•\u001b[0m   \n",
      " \u001b[37m•\u001b[0m\u001b[37m•\u001b[0m\u001b[37m•\u001b[0m\u001b[37m•\u001b[0m\u001b[37m•\u001b[0m\u001b[37m•\u001b[0m\u001b[37m•\u001b[0m\u001b[37m•\u001b[0m\u001b[37m•\u001b[0m\u001b[37m•\u001b[0m\u001b[37m•\u001b[0m\u001b[37m•\u001b[0m\u001b[37m•\u001b[0m\u001b[37m•\u001b[0m\u001b[37m•\u001b[0m\u001b[37m•\u001b[0m\u001b[37m•\u001b[0m\u001b[37m•\u001b[0m\u001b[37m•\u001b[0m\u001b[37m•\u001b[0m\u001b[36m•\u001b[0m\u001b[36m•\u001b[0m\u001b[36m•\u001b[0m\u001b[36m•\u001b[0m\u001b[36m•\u001b[0m   \u001b[37m•\u001b[0m Sampling 40.48% (34)\n",
      "  \u001b[37m•\u001b[0m\u001b[37m•\u001b[0m\u001b[37m•\u001b[0m\u001b[37m•\u001b[0m\u001b[37m•\u001b[0m\u001b[37m•\u001b[0m\u001b[37m•\u001b[0m\u001b[37m•\u001b[0m\u001b[37m•\u001b[0m\u001b[37m•\u001b[0m\u001b[37m•\u001b[0m\u001b[37m•\u001b[0m\u001b[37m•\u001b[0m\u001b[37m•\u001b[0m\u001b[37m•\u001b[0m\u001b[37m•\u001b[0m\u001b[37m•\u001b[0m\u001b[37m•\u001b[0m\u001b[37m•\u001b[0m\u001b[37m•\u001b[0m\u001b[37m•\u001b[0m\u001b[37m•\u001b[0m\u001b[36m•\u001b[0m    \n",
      "  \u001b[37m•\u001b[0m\u001b[37m•\u001b[0m\u001b[37m•\u001b[0m\u001b[37m•\u001b[0m\u001b[37m•\u001b[0m\u001b[37m•\u001b[0m\u001b[37m•\u001b[0m\u001b[37m•\u001b[0m\u001b[37m•\u001b[0m\u001b[37m•\u001b[0m\u001b[37m•\u001b[0m\u001b[37m•\u001b[0m\u001b[37m•\u001b[0m\u001b[37m•\u001b[0m\u001b[37m•\u001b[0m\u001b[37m•\u001b[0m\u001b[37m•\u001b[0m\u001b[37m•\u001b[0m\u001b[37m•\u001b[0m\u001b[37m•\u001b[0m\u001b[37m•\u001b[0m\u001b[37m•\u001b[0m\u001b[37m•\u001b[0m    \u001b[38;2;128;128;128m•\u001b[0m Extraction Sampling 17.86% (15)\n",
      "    \u001b[37m•\u001b[0m\u001b[37m•\u001b[0m\u001b[37m•\u001b[0m\u001b[37m•\u001b[0m\u001b[37m•\u001b[0m\u001b[37m•\u001b[0m\u001b[37m•\u001b[0m\u001b[37m•\u001b[0m\u001b[37m•\u001b[0m\u001b[37m•\u001b[0m\u001b[37m•\u001b[0m\u001b[37m•\u001b[0m\u001b[37m•\u001b[0m\u001b[37m•\u001b[0m\u001b[37m•\u001b[0m\u001b[37m•\u001b[0m\u001b[37m•\u001b[0m\u001b[37m•\u001b[0m\u001b[37m•\u001b[0m      \n",
      "     \u001b[37m•\u001b[0m\u001b[37m•\u001b[0m\u001b[37m•\u001b[0m\u001b[37m•\u001b[0m\u001b[37m•\u001b[0m\u001b[37m•\u001b[0m\u001b[37m•\u001b[0m\u001b[37m•\u001b[0m\u001b[37m•\u001b[0m\u001b[37m•\u001b[0m\u001b[37m•\u001b[0m\u001b[37m•\u001b[0m\u001b[37m•\u001b[0m\u001b[37m•\u001b[0m\u001b[37m•\u001b[0m\u001b[37m•\u001b[0m\u001b[37m•\u001b[0m       \u001b[35m•\u001b[0m Extraction 10.71% (9)\n",
      "       \u001b[37m•\u001b[0m\u001b[37m•\u001b[0m\u001b[37m•\u001b[0m\u001b[37m•\u001b[0m\u001b[37m•\u001b[0m\u001b[37m•\u001b[0m\u001b[37m•\u001b[0m\u001b[37m•\u001b[0m\u001b[37m•\u001b[0m\u001b[37m•\u001b[0m\u001b[37m•\u001b[0m\u001b[37m•\u001b[0m\u001b[37m•\u001b[0m         \n",
      "           \u001b[37m•\u001b[0m\u001b[37m•\u001b[0m\u001b[37m•\u001b[0m\u001b[37m•\u001b[0m\u001b[37m•\u001b[0m             \n",
      "Test: 622 points, tol:0.000001\n",
      "%%%%%%%%%%%%%%%%%%%%%%%%%%%%%%%%%%%%%%%%%%%%%%%%%\n",
      "\n",
      "Computing Indices...\n",
      "\n",
      "New 64 boxes, and active indices: 622\n",
      "Current Level: 2. Indices computed in 66.542µs\n",
      "\n",
      "\n",
      "Number of merged boxes: 0\n",
      "\n",
      "Sampling step. Sampling new 420 vectors\n",
      "Sample generation: 7.416µs\n",
      "Multiplication: 91.166µs (3.038µs per sample)\n",
      "Filling: 6.417µs\n",
      "Current number of samples: 1\n",
      "\n",
      "Sample generation: 170.879µs\n",
      "Multiplication: 2.109456ms (70.315µs per sample)\n",
      "Filling: 94.541µs\n",
      "Current number of samples: 31\n",
      "\n",
      "Sample generation: 185.836µs\n",
      "Multiplication: 2.38875ms (79.625µs per sample)\n",
      "Filling: 103.539µs\n",
      "Current number of samples: 61\n",
      "\n",
      "Sample generation: 181.669µs\n",
      "Multiplication: 2.17879ms (72.626µs per sample)\n",
      "Filling: 93.249µs\n",
      "Current number of samples: 91\n",
      "\n",
      "Sample generation: 179.293µs\n",
      "Multiplication: 2.222584ms (74.086µs per sample)\n",
      "Filling: 101.083µs\n",
      "Current number of samples: 121\n",
      "\n",
      "Sample generation: 175.125µs\n",
      "Multiplication: 2.147375ms (71.579µs per sample)\n",
      "Filling: 85.876µs\n",
      "Current number of samples: 151\n",
      "\n",
      "Sample generation: 186.463µs\n",
      "Multiplication: 2.110252ms (70.341µs per sample)\n",
      "Filling: 98.874µs\n",
      "Current number of samples: 181\n",
      "\n",
      "Sample generation: 185.84µs\n",
      "Multiplication: 2.345125ms (78.17µs per sample)\n",
      "Filling: 92.211µs\n",
      "Current number of samples: 211\n",
      "\n",
      "Sample generation: 173.083µs\n",
      "Multiplication: 2.117664ms (70.588µs per sample)\n",
      "Filling: 100.046µs\n",
      "Current number of samples: 241\n",
      "\n",
      "Sample generation: 171.711µs\n",
      "Multiplication: 2.13608ms (71.202µs per sample)\n",
      "Filling: 91.538µs\n",
      "Current number of samples: 271\n",
      "\n",
      "Sample generation: 184.626µs\n",
      "Multiplication: 2.298413ms (76.613µs per sample)\n",
      "Filling: 90.21µs\n",
      "Current number of samples: 301\n",
      "\n",
      "Sample generation: 173.962µs\n",
      "Multiplication: 2.123082ms (70.769µs per sample)\n",
      "Filling: 88.789µs\n",
      "Current number of samples: 331\n",
      "\n",
      "Sample generation: 172.791µs\n",
      "Multiplication: 2.122709ms (70.756µs per sample)\n",
      "Filling: 115.707µs\n",
      "Current number of samples: 361\n",
      "\n",
      "Sample generation: 173.709µs\n",
      "Multiplication: 2.10754ms (70.251µs per sample)\n",
      "Filling: 96.459µs\n",
      "Current number of samples: 391\n",
      "\n",
      "Total samples: 420\n",
      "Sampling time: 34ms\n",
      "\n",
      "Active samples: 197\n",
      "\n",
      "Starting ID step\n",
      "ID calculations in 2.806291ms\n",
      "ID postprocessing in 3.458µs\n",
      "ID step in 2.871834ms\n",
      "ID updated in 39.916µs\n",
      "\n",
      "Start LU step\n",
      "Batches computed in 3.916µs\n",
      "Active samples vs total samples: 197, 420\n",
      "LU step in 0ms, with updates in 0ms\n",
      "\n",
      "End level cycle. Summary:\n",
      "-------------------------\n",
      "Elapsed time: 0 s\n",
      "Sketch Points: 621\n",
      "Residual Points: 1\n",
      "Current Number of Samples: 420 of which 197 are active\n",
      "\n",
      "-------------------------\n",
      "\n",
      "Reached lower level: 1\n",
      "Minimum samples: 717\n",
      "Sampling step. Sampling new 297 vectors\n",
      "Sample generation: 6.875µs\n",
      "Multiplication: 83.333µs (2.777µs per sample)\n",
      "Filling: 7.083µs\n",
      "Current number of samples: 1\n",
      "\n",
      "Sample generation: 179.419µs\n",
      "Multiplication: 2.254211ms (75.14µs per sample)\n",
      "Filling: 89.419µs\n",
      "Current number of samples: 31\n",
      "\n",
      "Sample generation: 173.171µs\n",
      "Multiplication: 2.102292ms (70.076µs per sample)\n",
      "Filling: 98.039µs\n",
      "Current number of samples: 61\n",
      "\n",
      "Sample generation: 173.584µs\n",
      "Multiplication: 2.098126ms (69.937µs per sample)\n",
      "Filling: 92.788µs\n",
      "Current number of samples: 91\n",
      "\n",
      "Sample generation: 174.289µs\n",
      "Multiplication: 2.106168ms (70.205µs per sample)\n",
      "Filling: 80.959µs\n",
      "Current number of samples: 121\n",
      "\n",
      "Sample generation: 187.664µs\n",
      "Multiplication: 2.138ms (71.266µs per sample)\n",
      "Filling: 74.459µs\n",
      "Current number of samples: 151\n",
      "\n",
      "Sample generation: 186.628µs\n",
      "Multiplication: 2.339247ms (77.974µs per sample)\n",
      "Filling: 88.585µs\n",
      "Current number of samples: 181\n",
      "\n",
      "Sample generation: 168.915µs\n",
      "Multiplication: 2.110457ms (70.348µs per sample)\n",
      "Filling: 76.378µs\n",
      "Current number of samples: 211\n",
      "\n",
      "Sample generation: 176.129µs\n",
      "Multiplication: 2.210961ms (73.698µs per sample)\n",
      "Filling: 105.208µs\n",
      "Current number of samples: 241\n",
      "\n",
      "Sample generation: 172.668µs\n",
      "Multiplication: 2.098251ms (69.941µs per sample)\n",
      "Filling: 137.332µs\n",
      "Current number of samples: 271\n",
      "\n",
      "Total samples: 717\n",
      "Sampling time: 26ms\n",
      "\n",
      "Extra active samples: 520. Min samples: 717\n",
      "Update times: 0ms, 0ms\n",
      "Tree cycle elapsed time: 0 s\n",
      "Extracting diagonal blocks with 717 active samples\n",
      "Extraction time: 0s\n",
      "\n",
      "Total elapsed time: 80.7605ms (60ms for sampling, 20ms for RSRS), with 717 active samples\n",
      "\n",
      "%%%%%%%%%%%%%%%%%%%%%%%%%%%%%%%%%%%%%%%%%%%%%%%%%\n",
      "\n",
      "GMRES converged in 2 iterations with relative residual +8.49467182355201E-11.\n",
      "LU: 0\n",
      "ID: 2\n",
      "Other: 0\n",
      "Update ID: 0\n",
      "Update LU: 0\n",
      "Extraction: 15\n",
      "Total RSRS: 17\n",
      "Total Sampling: 60\n",
      "           \u001b[35m•\u001b[0m\u001b[35m•\u001b[0m\u001b[31m•\u001b[0m\u001b[32m•\u001b[0m\u001b[37m•\u001b[0m             \n",
      "       \u001b[35m•\u001b[0m\u001b[35m•\u001b[0m\u001b[35m•\u001b[0m\u001b[35m•\u001b[0m\u001b[35m•\u001b[0m\u001b[35m•\u001b[0m\u001b[31m•\u001b[0m\u001b[32m•\u001b[0m\u001b[37m•\u001b[0m\u001b[37m•\u001b[0m\u001b[37m•\u001b[0m\u001b[37m•\u001b[0m\u001b[37m•\u001b[0m         \n",
      "     \u001b[35m•\u001b[0m\u001b[35m•\u001b[0m\u001b[35m•\u001b[0m\u001b[35m•\u001b[0m\u001b[35m•\u001b[0m\u001b[35m•\u001b[0m\u001b[35m•\u001b[0m\u001b[35m•\u001b[0m\u001b[31m•\u001b[0m\u001b[32m•\u001b[0m\u001b[37m•\u001b[0m\u001b[37m•\u001b[0m\u001b[37m•\u001b[0m\u001b[37m•\u001b[0m\u001b[37m•\u001b[0m\u001b[37m•\u001b[0m\u001b[37m•\u001b[0m       \u001b[31m•\u001b[0m LU 0.00% (0)\n",
      "    \u001b[35m•\u001b[0m\u001b[35m•\u001b[0m\u001b[35m•\u001b[0m\u001b[35m•\u001b[0m\u001b[35m•\u001b[0m\u001b[35m•\u001b[0m\u001b[35m•\u001b[0m\u001b[35m•\u001b[0m\u001b[35m•\u001b[0m\u001b[31m•\u001b[0m\u001b[37m•\u001b[0m\u001b[37m•\u001b[0m\u001b[37m•\u001b[0m\u001b[37m•\u001b[0m\u001b[37m•\u001b[0m\u001b[37m•\u001b[0m\u001b[37m•\u001b[0m\u001b[37m•\u001b[0m\u001b[37m•\u001b[0m      \n",
      "  \u001b[35m•\u001b[0m\u001b[35m•\u001b[0m\u001b[35m•\u001b[0m\u001b[35m•\u001b[0m\u001b[35m•\u001b[0m\u001b[35m•\u001b[0m\u001b[35m•\u001b[0m\u001b[35m•\u001b[0m\u001b[35m•\u001b[0m\u001b[35m•\u001b[0m\u001b[35m•\u001b[0m\u001b[31m•\u001b[0m\u001b[37m•\u001b[0m\u001b[37m•\u001b[0m\u001b[37m•\u001b[0m\u001b[37m•\u001b[0m\u001b[37m•\u001b[0m\u001b[37m•\u001b[0m\u001b[37m•\u001b[0m\u001b[37m•\u001b[0m\u001b[37m•\u001b[0m\u001b[37m•\u001b[0m\u001b[37m•\u001b[0m    \u001b[32m•\u001b[0m ID 2.60% (2)\n",
      "  \u001b[35m•\u001b[0m\u001b[35m•\u001b[0m\u001b[35m•\u001b[0m\u001b[35m•\u001b[0m\u001b[35m•\u001b[0m\u001b[35m•\u001b[0m\u001b[35m•\u001b[0m\u001b[35m•\u001b[0m\u001b[35m•\u001b[0m\u001b[35m•\u001b[0m\u001b[35m•\u001b[0m\u001b[31m•\u001b[0m\u001b[37m•\u001b[0m\u001b[37m•\u001b[0m\u001b[37m•\u001b[0m\u001b[37m•\u001b[0m\u001b[37m•\u001b[0m\u001b[37m•\u001b[0m\u001b[37m•\u001b[0m\u001b[37m•\u001b[0m\u001b[37m•\u001b[0m\u001b[37m•\u001b[0m\u001b[37m•\u001b[0m    \n",
      " \u001b[38;2;128;128;128m•\u001b[0m\u001b[38;2;128;128;128m•\u001b[0m\u001b[38;2;128;128;128m•\u001b[0m\u001b[38;2;128;128;128m•\u001b[0m\u001b[35m•\u001b[0m\u001b[35m•\u001b[0m\u001b[35m•\u001b[0m\u001b[35m•\u001b[0m\u001b[35m•\u001b[0m\u001b[35m•\u001b[0m\u001b[35m•\u001b[0m\u001b[35m•\u001b[0m\u001b[31m•\u001b[0m\u001b[37m•\u001b[0m\u001b[37m•\u001b[0m\u001b[37m•\u001b[0m\u001b[37m•\u001b[0m\u001b[37m•\u001b[0m\u001b[37m•\u001b[0m\u001b[37m•\u001b[0m\u001b[37m•\u001b[0m\u001b[37m•\u001b[0m\u001b[37m•\u001b[0m\u001b[37m•\u001b[0m\u001b[37m•\u001b[0m   \u001b[34m•\u001b[0m Other 0.00% (0)\n",
      " \u001b[38;2;128;128;128m•\u001b[0m\u001b[38;2;128;128;128m•\u001b[0m\u001b[38;2;128;128;128m•\u001b[0m\u001b[38;2;128;128;128m•\u001b[0m\u001b[38;2;128;128;128m•\u001b[0m\u001b[38;2;128;128;128m•\u001b[0m\u001b[38;2;128;128;128m•\u001b[0m\u001b[35m•\u001b[0m\u001b[35m•\u001b[0m\u001b[35m•\u001b[0m\u001b[35m•\u001b[0m\u001b[35m•\u001b[0m\u001b[31m•\u001b[0m\u001b[37m•\u001b[0m\u001b[37m•\u001b[0m\u001b[37m•\u001b[0m\u001b[37m•\u001b[0m\u001b[37m•\u001b[0m\u001b[37m•\u001b[0m\u001b[37m•\u001b[0m\u001b[37m•\u001b[0m\u001b[37m•\u001b[0m\u001b[37m•\u001b[0m\u001b[37m•\u001b[0m\u001b[37m•\u001b[0m   \n",
      "\u001b[38;2;128;128;128m•\u001b[0m\u001b[38;2;128;128;128m•\u001b[0m\u001b[38;2;128;128;128m•\u001b[0m\u001b[38;2;128;128;128m•\u001b[0m\u001b[38;2;128;128;128m•\u001b[0m\u001b[38;2;128;128;128m•\u001b[0m\u001b[38;2;128;128;128m•\u001b[0m\u001b[38;2;128;128;128m•\u001b[0m\u001b[38;2;128;128;128m•\u001b[0m\u001b[38;2;128;128;128m•\u001b[0m\u001b[38;2;128;128;128m•\u001b[0m\u001b[35m•\u001b[0m\u001b[35m•\u001b[0m\u001b[31m•\u001b[0m\u001b[37m•\u001b[0m\u001b[37m•\u001b[0m\u001b[37m•\u001b[0m\u001b[37m•\u001b[0m\u001b[37m•\u001b[0m\u001b[37m•\u001b[0m\u001b[37m•\u001b[0m\u001b[37m•\u001b[0m\u001b[37m•\u001b[0m\u001b[37m•\u001b[0m\u001b[37m•\u001b[0m\u001b[37m•\u001b[0m\u001b[37m•\u001b[0m  \u001b[33m•\u001b[0m Update ID 0.00% (0)\n",
      "\u001b[38;2;128;128;128m•\u001b[0m\u001b[38;2;128;128;128m•\u001b[0m\u001b[38;2;128;128;128m•\u001b[0m\u001b[38;2;128;128;128m•\u001b[0m\u001b[38;2;128;128;128m•\u001b[0m\u001b[38;2;128;128;128m•\u001b[0m\u001b[38;2;128;128;128m•\u001b[0m\u001b[38;2;128;128;128m•\u001b[0m\u001b[38;2;128;128;128m•\u001b[0m\u001b[38;2;128;128;128m•\u001b[0m\u001b[38;2;128;128;128m•\u001b[0m\u001b[38;2;128;128;128m•\u001b[0m\u001b[38;2;128;128;128m•\u001b[0m\u001b[38;2;128;128;128m•\u001b[0m\u001b[37m•\u001b[0m\u001b[37m•\u001b[0m\u001b[37m•\u001b[0m\u001b[37m•\u001b[0m\u001b[37m•\u001b[0m\u001b[37m•\u001b[0m\u001b[37m•\u001b[0m\u001b[37m•\u001b[0m\u001b[37m•\u001b[0m\u001b[37m•\u001b[0m\u001b[37m•\u001b[0m\u001b[37m•\u001b[0m\u001b[37m•\u001b[0m  \n",
      "\u001b[38;2;128;128;128m•\u001b[0m\u001b[38;2;128;128;128m•\u001b[0m\u001b[38;2;128;128;128m•\u001b[0m\u001b[38;2;128;128;128m•\u001b[0m\u001b[38;2;128;128;128m•\u001b[0m\u001b[38;2;128;128;128m•\u001b[0m\u001b[38;2;128;128;128m•\u001b[0m\u001b[38;2;128;128;128m•\u001b[0m\u001b[38;2;128;128;128m•\u001b[0m\u001b[38;2;128;128;128m•\u001b[0m\u001b[38;2;128;128;128m•\u001b[0m\u001b[38;2;128;128;128m•\u001b[0m\u001b[38;2;128;128;128m•\u001b[0m\u001b[38;2;128;128;128m•\u001b[0m\u001b[37m•\u001b[0m\u001b[37m•\u001b[0m\u001b[37m•\u001b[0m\u001b[37m•\u001b[0m\u001b[37m•\u001b[0m\u001b[37m•\u001b[0m\u001b[37m•\u001b[0m\u001b[37m•\u001b[0m\u001b[37m•\u001b[0m\u001b[37m•\u001b[0m\u001b[37m•\u001b[0m\u001b[37m•\u001b[0m\u001b[37m•\u001b[0m  \u001b[36m•\u001b[0m Update LU 0.00% (0)\n",
      " \u001b[38;2;128;128;128m•\u001b[0m\u001b[38;2;128;128;128m•\u001b[0m\u001b[38;2;128;128;128m•\u001b[0m\u001b[38;2;128;128;128m•\u001b[0m\u001b[38;2;128;128;128m•\u001b[0m\u001b[38;2;128;128;128m•\u001b[0m\u001b[38;2;128;128;128m•\u001b[0m\u001b[38;2;128;128;128m•\u001b[0m\u001b[38;2;128;128;128m•\u001b[0m\u001b[38;2;128;128;128m•\u001b[0m\u001b[38;2;128;128;128m•\u001b[0m\u001b[38;2;128;128;128m•\u001b[0m\u001b[38;2;128;128;128m•\u001b[0m\u001b[37m•\u001b[0m\u001b[37m•\u001b[0m\u001b[37m•\u001b[0m\u001b[37m•\u001b[0m\u001b[37m•\u001b[0m\u001b[37m•\u001b[0m\u001b[37m•\u001b[0m\u001b[37m•\u001b[0m\u001b[37m•\u001b[0m\u001b[37m•\u001b[0m\u001b[37m•\u001b[0m\u001b[37m•\u001b[0m   \n",
      " \u001b[38;2;128;128;128m•\u001b[0m\u001b[38;2;128;128;128m•\u001b[0m\u001b[38;2;128;128;128m•\u001b[0m\u001b[38;2;128;128;128m•\u001b[0m\u001b[38;2;128;128;128m•\u001b[0m\u001b[38;2;128;128;128m•\u001b[0m\u001b[38;2;128;128;128m•\u001b[0m\u001b[38;2;128;128;128m•\u001b[0m\u001b[38;2;128;128;128m•\u001b[0m\u001b[38;2;128;128;128m•\u001b[0m\u001b[38;2;128;128;128m•\u001b[0m\u001b[38;2;128;128;128m•\u001b[0m\u001b[38;2;128;128;128m•\u001b[0m\u001b[37m•\u001b[0m\u001b[37m•\u001b[0m\u001b[37m•\u001b[0m\u001b[37m•\u001b[0m\u001b[37m•\u001b[0m\u001b[37m•\u001b[0m\u001b[37m•\u001b[0m\u001b[37m•\u001b[0m\u001b[37m•\u001b[0m\u001b[37m•\u001b[0m\u001b[37m•\u001b[0m\u001b[37m•\u001b[0m   \u001b[37m•\u001b[0m Sampling 44.16% (34)\n",
      "  \u001b[38;2;128;128;128m•\u001b[0m\u001b[38;2;128;128;128m•\u001b[0m\u001b[38;2;128;128;128m•\u001b[0m\u001b[38;2;128;128;128m•\u001b[0m\u001b[38;2;128;128;128m•\u001b[0m\u001b[38;2;128;128;128m•\u001b[0m\u001b[38;2;128;128;128m•\u001b[0m\u001b[38;2;128;128;128m•\u001b[0m\u001b[38;2;128;128;128m•\u001b[0m\u001b[38;2;128;128;128m•\u001b[0m\u001b[38;2;128;128;128m•\u001b[0m\u001b[38;2;128;128;128m•\u001b[0m\u001b[37m•\u001b[0m\u001b[37m•\u001b[0m\u001b[37m•\u001b[0m\u001b[37m•\u001b[0m\u001b[37m•\u001b[0m\u001b[37m•\u001b[0m\u001b[37m•\u001b[0m\u001b[37m•\u001b[0m\u001b[37m•\u001b[0m\u001b[37m•\u001b[0m\u001b[37m•\u001b[0m    \n",
      "  \u001b[38;2;128;128;128m•\u001b[0m\u001b[38;2;128;128;128m•\u001b[0m\u001b[38;2;128;128;128m•\u001b[0m\u001b[38;2;128;128;128m•\u001b[0m\u001b[38;2;128;128;128m•\u001b[0m\u001b[38;2;128;128;128m•\u001b[0m\u001b[38;2;128;128;128m•\u001b[0m\u001b[38;2;128;128;128m•\u001b[0m\u001b[38;2;128;128;128m•\u001b[0m\u001b[38;2;128;128;128m•\u001b[0m\u001b[38;2;128;128;128m•\u001b[0m\u001b[38;2;128;128;128m•\u001b[0m\u001b[38;2;128;128;128m•\u001b[0m\u001b[37m•\u001b[0m\u001b[37m•\u001b[0m\u001b[37m•\u001b[0m\u001b[37m•\u001b[0m\u001b[37m•\u001b[0m\u001b[37m•\u001b[0m\u001b[37m•\u001b[0m\u001b[37m•\u001b[0m\u001b[37m•\u001b[0m\u001b[37m•\u001b[0m    \u001b[38;2;128;128;128m•\u001b[0m Extraction Sampling 33.77% (26)\n",
      "    \u001b[38;2;128;128;128m•\u001b[0m\u001b[38;2;128;128;128m•\u001b[0m\u001b[38;2;128;128;128m•\u001b[0m\u001b[38;2;128;128;128m•\u001b[0m\u001b[38;2;128;128;128m•\u001b[0m\u001b[38;2;128;128;128m•\u001b[0m\u001b[38;2;128;128;128m•\u001b[0m\u001b[38;2;128;128;128m•\u001b[0m\u001b[38;2;128;128;128m•\u001b[0m\u001b[38;2;128;128;128m•\u001b[0m\u001b[38;2;128;128;128m•\u001b[0m\u001b[37m•\u001b[0m\u001b[37m•\u001b[0m\u001b[37m•\u001b[0m\u001b[37m•\u001b[0m\u001b[37m•\u001b[0m\u001b[37m•\u001b[0m\u001b[37m•\u001b[0m\u001b[37m•\u001b[0m      \n",
      "     \u001b[38;2;128;128;128m•\u001b[0m\u001b[38;2;128;128;128m•\u001b[0m\u001b[38;2;128;128;128m•\u001b[0m\u001b[38;2;128;128;128m•\u001b[0m\u001b[38;2;128;128;128m•\u001b[0m\u001b[38;2;128;128;128m•\u001b[0m\u001b[38;2;128;128;128m•\u001b[0m\u001b[38;2;128;128;128m•\u001b[0m\u001b[38;2;128;128;128m•\u001b[0m\u001b[38;2;128;128;128m•\u001b[0m\u001b[37m•\u001b[0m\u001b[37m•\u001b[0m\u001b[37m•\u001b[0m\u001b[37m•\u001b[0m\u001b[37m•\u001b[0m\u001b[37m•\u001b[0m\u001b[37m•\u001b[0m       \u001b[35m•\u001b[0m Extraction 19.48% (15)\n",
      "       \u001b[38;2;128;128;128m•\u001b[0m\u001b[38;2;128;128;128m•\u001b[0m\u001b[38;2;128;128;128m•\u001b[0m\u001b[38;2;128;128;128m•\u001b[0m\u001b[38;2;128;128;128m•\u001b[0m\u001b[38;2;128;128;128m•\u001b[0m\u001b[38;2;128;128;128m•\u001b[0m\u001b[38;2;128;128;128m•\u001b[0m\u001b[37m•\u001b[0m\u001b[37m•\u001b[0m\u001b[37m•\u001b[0m\u001b[37m•\u001b[0m\u001b[37m•\u001b[0m         \n",
      "           \u001b[38;2;128;128;128m•\u001b[0m\u001b[38;2;128;128;128m•\u001b[0m\u001b[38;2;128;128;128m•\u001b[0m\u001b[38;2;128;128;128m•\u001b[0m\u001b[37m•\u001b[0m             \n",
      "Test: 622 points, tol:0.00000001\n",
      "%%%%%%%%%%%%%%%%%%%%%%%%%%%%%%%%%%%%%%%%%%%%%%%%%\n",
      "\n",
      "Computing Indices...\n",
      "\n",
      "New 64 boxes, and active indices: 622\n",
      "Current Level: 2. Indices computed in 57.209µs\n",
      "\n",
      "\n",
      "Number of merged boxes: 0\n",
      "\n",
      "Sampling step. Sampling new 420 vectors\n",
      "Sample generation: 7.583µs\n",
      "Multiplication: 82.792µs (2.759µs per sample)\n",
      "Filling: 6.792µs\n",
      "Current number of samples: 1\n",
      "\n",
      "Sample generation: 170.583µs\n",
      "Multiplication: 2.100293ms (70.009µs per sample)\n",
      "Filling: 80.585µs\n",
      "Current number of samples: 31\n",
      "\n",
      "Sample generation: 171.75µs\n",
      "Multiplication: 2.146876ms (71.562µs per sample)\n",
      "Filling: 91.454µs\n",
      "Current number of samples: 61\n",
      "\n",
      "Sample generation: 172.671µs\n",
      "Multiplication: 2.116627ms (70.554µs per sample)\n",
      "Filling: 105.791µs\n",
      "Current number of samples: 91\n",
      "\n",
      "Sample generation: 179.585µs\n",
      "Multiplication: 2.192544ms (73.084µs per sample)\n",
      "Filling: 86.795µs\n",
      "Current number of samples: 121\n",
      "\n",
      "Sample generation: 190.455µs\n",
      "Multiplication: 2.508209ms (83.606µs per sample)\n",
      "Filling: 170.166µs\n",
      "Current number of samples: 151\n",
      "\n",
      "Sample generation: 174.838µs\n",
      "Multiplication: 2.138876ms (71.295µs per sample)\n",
      "Filling: 90.208µs\n",
      "Current number of samples: 181\n",
      "\n",
      "Sample generation: 174.164µs\n",
      "Multiplication: 2.104332ms (70.144µs per sample)\n",
      "Filling: 111.085µs\n",
      "Current number of samples: 211\n",
      "\n",
      "Sample generation: 173.667µs\n",
      "Multiplication: 2.103877ms (70.129µs per sample)\n",
      "Filling: 105.792µs\n",
      "Current number of samples: 241\n",
      "\n",
      "Sample generation: 186.166µs\n",
      "Multiplication: 2.108167ms (70.272µs per sample)\n",
      "Filling: 83.453µs\n",
      "Current number of samples: 271\n",
      "\n",
      "Sample generation: 181.709µs\n",
      "Multiplication: 2.37267ms (79.089µs per sample)\n",
      "Filling: 88µs\n",
      "Current number of samples: 301\n",
      "\n",
      "Sample generation: 173.334µs\n",
      "Multiplication: 2.16625ms (72.208µs per sample)\n",
      "Filling: 83.583µs\n",
      "Current number of samples: 331\n",
      "\n",
      "Sample generation: 181.833µs\n",
      "Multiplication: 2.246045ms (74.868µs per sample)\n",
      "Filling: 97.457µs\n",
      "Current number of samples: 361\n",
      "\n",
      "Sample generation: 177.457µs\n",
      "Multiplication: 2.172833ms (72.427µs per sample)\n",
      "Filling: 100.75µs\n",
      "Current number of samples: 391\n",
      "\n",
      "Total samples: 420\n",
      "Sampling time: 34ms\n",
      "\n",
      "Active samples: 197\n",
      "\n",
      "Starting ID step\n",
      "ID calculations in 2.814875ms\n",
      "ID postprocessing in 2.167µs\n",
      "ID step in 2.885125ms\n",
      "ID updated in 1.5µs\n",
      "\n",
      "Start LU step\n",
      "Batches computed in 250ns\n",
      "Active samples vs total samples: 197, 420\n",
      "LU step in 0ms, with updates in 0ms\n",
      "\n",
      "End level cycle. Summary:\n",
      "-------------------------\n",
      "Elapsed time: 0 s\n",
      "Sketch Points: 622\n",
      "Residual Points: 0\n",
      "Current Number of Samples: 420 of which 197 are active\n",
      "\n",
      "-------------------------\n",
      "\n",
      "Reached lower level: 1\n",
      "Minimum samples: 718\n",
      "Sampling step. Sampling new 298 vectors\n",
      "Sample generation: 7.125µs\n",
      "Multiplication: 88.667µs (2.955µs per sample)\n",
      "Filling: 7.291µs\n",
      "Current number of samples: 1\n",
      "\n",
      "Sample generation: 173.876µs\n",
      "Multiplication: 2.131873ms (71.062µs per sample)\n",
      "Filling: 78.247µs\n",
      "Current number of samples: 31\n",
      "\n",
      "Sample generation: 172.337µs\n",
      "Multiplication: 2.102833ms (70.094µs per sample)\n",
      "Filling: 74.581µs\n",
      "Current number of samples: 61\n",
      "\n",
      "Sample generation: 208.419µs\n",
      "Multiplication: 2.24196ms (74.732µs per sample)\n",
      "Filling: 92.083µs\n",
      "Current number of samples: 91\n",
      "\n",
      "Sample generation: 180.334µs\n",
      "Multiplication: 2.230792ms (74.359µs per sample)\n",
      "Filling: 95.71µs\n",
      "Current number of samples: 121\n",
      "\n",
      "Sample generation: 172.751µs\n",
      "Multiplication: 2.129084ms (70.969µs per sample)\n",
      "Filling: 112.291µs\n",
      "Current number of samples: 151\n",
      "\n",
      "Sample generation: 172.122µs\n",
      "Multiplication: 2.104043ms (70.134µs per sample)\n",
      "Filling: 81.416µs\n",
      "Current number of samples: 181\n",
      "\n",
      "Sample generation: 173.044µs\n",
      "Multiplication: 2.177084ms (72.569µs per sample)\n",
      "Filling: 73.041µs\n",
      "Current number of samples: 211\n",
      "\n",
      "Sample generation: 174.001µs\n",
      "Multiplication: 2.120622ms (70.687µs per sample)\n",
      "Filling: 112.125µs\n",
      "Current number of samples: 241\n",
      "\n",
      "Sample generation: 186.373µs\n",
      "Multiplication: 2.36067ms (78.689µs per sample)\n",
      "Filling: 82.911µs\n",
      "Current number of samples: 271\n",
      "\n",
      "Total samples: 718\n",
      "Sampling time: 26ms\n",
      "\n",
      "Extra active samples: 521. Min samples: 718\n",
      "Update times: 0ms, 0ms\n",
      "Tree cycle elapsed time: 0 s\n",
      "Extracting diagonal blocks with 718 active samples\n",
      "Extraction time: 0s\n",
      "\n",
      "Total elapsed time: 79.089125ms (60ms for sampling, 19ms for RSRS), with 718 active samples\n",
      "\n",
      "%%%%%%%%%%%%%%%%%%%%%%%%%%%%%%%%%%%%%%%%%%%%%%%%%\n",
      "\n",
      "GMRES converged in 2 iterations with relative residual +2.7093437513682686E-11.\n",
      "LU: 0\n",
      "ID: 2\n",
      "Other: 0\n",
      "Update ID: 0\n",
      "Update LU: 0\n",
      "Extraction: 14\n",
      "Total RSRS: 16\n",
      "Total Sampling: 60\n",
      "           \u001b[35m•\u001b[0m\u001b[35m•\u001b[0m\u001b[31m•\u001b[0m\u001b[32m•\u001b[0m\u001b[37m•\u001b[0m             \n",
      "       \u001b[35m•\u001b[0m\u001b[35m•\u001b[0m\u001b[35m•\u001b[0m\u001b[35m•\u001b[0m\u001b[35m•\u001b[0m\u001b[35m•\u001b[0m\u001b[31m•\u001b[0m\u001b[32m•\u001b[0m\u001b[37m•\u001b[0m\u001b[37m•\u001b[0m\u001b[37m•\u001b[0m\u001b[37m•\u001b[0m\u001b[37m•\u001b[0m         \n",
      "     \u001b[35m•\u001b[0m\u001b[35m•\u001b[0m\u001b[35m•\u001b[0m\u001b[35m•\u001b[0m\u001b[35m•\u001b[0m\u001b[35m•\u001b[0m\u001b[35m•\u001b[0m\u001b[35m•\u001b[0m\u001b[31m•\u001b[0m\u001b[32m•\u001b[0m\u001b[37m•\u001b[0m\u001b[37m•\u001b[0m\u001b[37m•\u001b[0m\u001b[37m•\u001b[0m\u001b[37m•\u001b[0m\u001b[37m•\u001b[0m\u001b[37m•\u001b[0m       \u001b[31m•\u001b[0m LU 0.00% (0)\n",
      "    \u001b[35m•\u001b[0m\u001b[35m•\u001b[0m\u001b[35m•\u001b[0m\u001b[35m•\u001b[0m\u001b[35m•\u001b[0m\u001b[35m•\u001b[0m\u001b[35m•\u001b[0m\u001b[35m•\u001b[0m\u001b[35m•\u001b[0m\u001b[31m•\u001b[0m\u001b[32m•\u001b[0m\u001b[37m•\u001b[0m\u001b[37m•\u001b[0m\u001b[37m•\u001b[0m\u001b[37m•\u001b[0m\u001b[37m•\u001b[0m\u001b[37m•\u001b[0m\u001b[37m•\u001b[0m\u001b[37m•\u001b[0m      \n",
      "  \u001b[35m•\u001b[0m\u001b[35m•\u001b[0m\u001b[35m•\u001b[0m\u001b[35m•\u001b[0m\u001b[35m•\u001b[0m\u001b[35m•\u001b[0m\u001b[35m•\u001b[0m\u001b[35m•\u001b[0m\u001b[35m•\u001b[0m\u001b[35m•\u001b[0m\u001b[35m•\u001b[0m\u001b[31m•\u001b[0m\u001b[37m•\u001b[0m\u001b[37m•\u001b[0m\u001b[37m•\u001b[0m\u001b[37m•\u001b[0m\u001b[37m•\u001b[0m\u001b[37m•\u001b[0m\u001b[37m•\u001b[0m\u001b[37m•\u001b[0m\u001b[37m•\u001b[0m\u001b[37m•\u001b[0m\u001b[37m•\u001b[0m    \u001b[32m•\u001b[0m ID 2.63% (2)\n",
      "  \u001b[38;2;128;128;128m•\u001b[0m\u001b[38;2;128;128;128m•\u001b[0m\u001b[35m•\u001b[0m\u001b[35m•\u001b[0m\u001b[35m•\u001b[0m\u001b[35m•\u001b[0m\u001b[35m•\u001b[0m\u001b[35m•\u001b[0m\u001b[35m•\u001b[0m\u001b[35m•\u001b[0m\u001b[35m•\u001b[0m\u001b[31m•\u001b[0m\u001b[37m•\u001b[0m\u001b[37m•\u001b[0m\u001b[37m•\u001b[0m\u001b[37m•\u001b[0m\u001b[37m•\u001b[0m\u001b[37m•\u001b[0m\u001b[37m•\u001b[0m\u001b[37m•\u001b[0m\u001b[37m•\u001b[0m\u001b[37m•\u001b[0m\u001b[37m•\u001b[0m    \n",
      " \u001b[38;2;128;128;128m•\u001b[0m\u001b[38;2;128;128;128m•\u001b[0m\u001b[38;2;128;128;128m•\u001b[0m\u001b[38;2;128;128;128m•\u001b[0m\u001b[38;2;128;128;128m•\u001b[0m\u001b[38;2;128;128;128m•\u001b[0m\u001b[35m•\u001b[0m\u001b[35m•\u001b[0m\u001b[35m•\u001b[0m\u001b[35m•\u001b[0m\u001b[35m•\u001b[0m\u001b[35m•\u001b[0m\u001b[31m•\u001b[0m\u001b[37m•\u001b[0m\u001b[37m•\u001b[0m\u001b[37m•\u001b[0m\u001b[37m•\u001b[0m\u001b[37m•\u001b[0m\u001b[37m•\u001b[0m\u001b[37m•\u001b[0m\u001b[37m•\u001b[0m\u001b[37m•\u001b[0m\u001b[37m•\u001b[0m\u001b[37m•\u001b[0m\u001b[37m•\u001b[0m   \u001b[34m•\u001b[0m Other 0.00% (0)\n",
      " \u001b[38;2;128;128;128m•\u001b[0m\u001b[38;2;128;128;128m•\u001b[0m\u001b[38;2;128;128;128m•\u001b[0m\u001b[38;2;128;128;128m•\u001b[0m\u001b[38;2;128;128;128m•\u001b[0m\u001b[38;2;128;128;128m•\u001b[0m\u001b[38;2;128;128;128m•\u001b[0m\u001b[38;2;128;128;128m•\u001b[0m\u001b[35m•\u001b[0m\u001b[35m•\u001b[0m\u001b[35m•\u001b[0m\u001b[35m•\u001b[0m\u001b[31m•\u001b[0m\u001b[37m•\u001b[0m\u001b[37m•\u001b[0m\u001b[37m•\u001b[0m\u001b[37m•\u001b[0m\u001b[37m•\u001b[0m\u001b[37m•\u001b[0m\u001b[37m•\u001b[0m\u001b[37m•\u001b[0m\u001b[37m•\u001b[0m\u001b[37m•\u001b[0m\u001b[37m•\u001b[0m\u001b[37m•\u001b[0m   \n",
      "\u001b[38;2;128;128;128m•\u001b[0m\u001b[38;2;128;128;128m•\u001b[0m\u001b[38;2;128;128;128m•\u001b[0m\u001b[38;2;128;128;128m•\u001b[0m\u001b[38;2;128;128;128m•\u001b[0m\u001b[38;2;128;128;128m•\u001b[0m\u001b[38;2;128;128;128m•\u001b[0m\u001b[38;2;128;128;128m•\u001b[0m\u001b[38;2;128;128;128m•\u001b[0m\u001b[38;2;128;128;128m•\u001b[0m\u001b[38;2;128;128;128m•\u001b[0m\u001b[35m•\u001b[0m\u001b[35m•\u001b[0m\u001b[31m•\u001b[0m\u001b[37m•\u001b[0m\u001b[37m•\u001b[0m\u001b[37m•\u001b[0m\u001b[37m•\u001b[0m\u001b[37m•\u001b[0m\u001b[37m•\u001b[0m\u001b[37m•\u001b[0m\u001b[37m•\u001b[0m\u001b[37m•\u001b[0m\u001b[37m•\u001b[0m\u001b[37m•\u001b[0m\u001b[37m•\u001b[0m\u001b[37m•\u001b[0m  \u001b[33m•\u001b[0m Update ID 0.00% (0)\n",
      "\u001b[38;2;128;128;128m•\u001b[0m\u001b[38;2;128;128;128m•\u001b[0m\u001b[38;2;128;128;128m•\u001b[0m\u001b[38;2;128;128;128m•\u001b[0m\u001b[38;2;128;128;128m•\u001b[0m\u001b[38;2;128;128;128m•\u001b[0m\u001b[38;2;128;128;128m•\u001b[0m\u001b[38;2;128;128;128m•\u001b[0m\u001b[38;2;128;128;128m•\u001b[0m\u001b[38;2;128;128;128m•\u001b[0m\u001b[38;2;128;128;128m•\u001b[0m\u001b[38;2;128;128;128m•\u001b[0m\u001b[38;2;128;128;128m•\u001b[0m\u001b[38;2;128;128;128m•\u001b[0m\u001b[37m•\u001b[0m\u001b[37m•\u001b[0m\u001b[37m•\u001b[0m\u001b[37m•\u001b[0m\u001b[37m•\u001b[0m\u001b[37m•\u001b[0m\u001b[37m•\u001b[0m\u001b[37m•\u001b[0m\u001b[37m•\u001b[0m\u001b[37m•\u001b[0m\u001b[37m•\u001b[0m\u001b[37m•\u001b[0m\u001b[37m•\u001b[0m  \n",
      "\u001b[38;2;128;128;128m•\u001b[0m\u001b[38;2;128;128;128m•\u001b[0m\u001b[38;2;128;128;128m•\u001b[0m\u001b[38;2;128;128;128m•\u001b[0m\u001b[38;2;128;128;128m•\u001b[0m\u001b[38;2;128;128;128m•\u001b[0m\u001b[38;2;128;128;128m•\u001b[0m\u001b[38;2;128;128;128m•\u001b[0m\u001b[38;2;128;128;128m•\u001b[0m\u001b[38;2;128;128;128m•\u001b[0m\u001b[38;2;128;128;128m•\u001b[0m\u001b[38;2;128;128;128m•\u001b[0m\u001b[38;2;128;128;128m•\u001b[0m\u001b[38;2;128;128;128m•\u001b[0m\u001b[37m•\u001b[0m\u001b[37m•\u001b[0m\u001b[37m•\u001b[0m\u001b[37m•\u001b[0m\u001b[37m•\u001b[0m\u001b[37m•\u001b[0m\u001b[37m•\u001b[0m\u001b[37m•\u001b[0m\u001b[37m•\u001b[0m\u001b[37m•\u001b[0m\u001b[37m•\u001b[0m\u001b[37m•\u001b[0m\u001b[37m•\u001b[0m  \u001b[36m•\u001b[0m Update LU 0.00% (0)\n",
      " \u001b[38;2;128;128;128m•\u001b[0m\u001b[38;2;128;128;128m•\u001b[0m\u001b[38;2;128;128;128m•\u001b[0m\u001b[38;2;128;128;128m•\u001b[0m\u001b[38;2;128;128;128m•\u001b[0m\u001b[38;2;128;128;128m•\u001b[0m\u001b[38;2;128;128;128m•\u001b[0m\u001b[38;2;128;128;128m•\u001b[0m\u001b[38;2;128;128;128m•\u001b[0m\u001b[38;2;128;128;128m•\u001b[0m\u001b[38;2;128;128;128m•\u001b[0m\u001b[38;2;128;128;128m•\u001b[0m\u001b[38;2;128;128;128m•\u001b[0m\u001b[37m•\u001b[0m\u001b[37m•\u001b[0m\u001b[37m•\u001b[0m\u001b[37m•\u001b[0m\u001b[37m•\u001b[0m\u001b[37m•\u001b[0m\u001b[37m•\u001b[0m\u001b[37m•\u001b[0m\u001b[37m•\u001b[0m\u001b[37m•\u001b[0m\u001b[37m•\u001b[0m\u001b[37m•\u001b[0m   \n",
      " \u001b[38;2;128;128;128m•\u001b[0m\u001b[38;2;128;128;128m•\u001b[0m\u001b[38;2;128;128;128m•\u001b[0m\u001b[38;2;128;128;128m•\u001b[0m\u001b[38;2;128;128;128m•\u001b[0m\u001b[38;2;128;128;128m•\u001b[0m\u001b[38;2;128;128;128m•\u001b[0m\u001b[38;2;128;128;128m•\u001b[0m\u001b[38;2;128;128;128m•\u001b[0m\u001b[38;2;128;128;128m•\u001b[0m\u001b[38;2;128;128;128m•\u001b[0m\u001b[38;2;128;128;128m•\u001b[0m\u001b[38;2;128;128;128m•\u001b[0m\u001b[37m•\u001b[0m\u001b[37m•\u001b[0m\u001b[37m•\u001b[0m\u001b[37m•\u001b[0m\u001b[37m•\u001b[0m\u001b[37m•\u001b[0m\u001b[37m•\u001b[0m\u001b[37m•\u001b[0m\u001b[37m•\u001b[0m\u001b[37m•\u001b[0m\u001b[37m•\u001b[0m\u001b[37m•\u001b[0m   \u001b[37m•\u001b[0m Sampling 44.74% (34)\n",
      "  \u001b[38;2;128;128;128m•\u001b[0m\u001b[38;2;128;128;128m•\u001b[0m\u001b[38;2;128;128;128m•\u001b[0m\u001b[38;2;128;128;128m•\u001b[0m\u001b[38;2;128;128;128m•\u001b[0m\u001b[38;2;128;128;128m•\u001b[0m\u001b[38;2;128;128;128m•\u001b[0m\u001b[38;2;128;128;128m•\u001b[0m\u001b[38;2;128;128;128m•\u001b[0m\u001b[38;2;128;128;128m•\u001b[0m\u001b[38;2;128;128;128m•\u001b[0m\u001b[38;2;128;128;128m•\u001b[0m\u001b[37m•\u001b[0m\u001b[37m•\u001b[0m\u001b[37m•\u001b[0m\u001b[37m•\u001b[0m\u001b[37m•\u001b[0m\u001b[37m•\u001b[0m\u001b[37m•\u001b[0m\u001b[37m•\u001b[0m\u001b[37m•\u001b[0m\u001b[37m•\u001b[0m\u001b[37m•\u001b[0m    \n",
      "  \u001b[38;2;128;128;128m•\u001b[0m\u001b[38;2;128;128;128m•\u001b[0m\u001b[38;2;128;128;128m•\u001b[0m\u001b[38;2;128;128;128m•\u001b[0m\u001b[38;2;128;128;128m•\u001b[0m\u001b[38;2;128;128;128m•\u001b[0m\u001b[38;2;128;128;128m•\u001b[0m\u001b[38;2;128;128;128m•\u001b[0m\u001b[38;2;128;128;128m•\u001b[0m\u001b[38;2;128;128;128m•\u001b[0m\u001b[38;2;128;128;128m•\u001b[0m\u001b[38;2;128;128;128m•\u001b[0m\u001b[37m•\u001b[0m\u001b[37m•\u001b[0m\u001b[37m•\u001b[0m\u001b[37m•\u001b[0m\u001b[37m•\u001b[0m\u001b[37m•\u001b[0m\u001b[37m•\u001b[0m\u001b[37m•\u001b[0m\u001b[37m•\u001b[0m\u001b[37m•\u001b[0m\u001b[37m•\u001b[0m    \u001b[38;2;128;128;128m•\u001b[0m Extraction Sampling 34.21% (26)\n",
      "    \u001b[38;2;128;128;128m•\u001b[0m\u001b[38;2;128;128;128m•\u001b[0m\u001b[38;2;128;128;128m•\u001b[0m\u001b[38;2;128;128;128m•\u001b[0m\u001b[38;2;128;128;128m•\u001b[0m\u001b[38;2;128;128;128m•\u001b[0m\u001b[38;2;128;128;128m•\u001b[0m\u001b[38;2;128;128;128m•\u001b[0m\u001b[38;2;128;128;128m•\u001b[0m\u001b[38;2;128;128;128m•\u001b[0m\u001b[38;2;128;128;128m•\u001b[0m\u001b[37m•\u001b[0m\u001b[37m•\u001b[0m\u001b[37m•\u001b[0m\u001b[37m•\u001b[0m\u001b[37m•\u001b[0m\u001b[37m•\u001b[0m\u001b[37m•\u001b[0m\u001b[37m•\u001b[0m      \n",
      "     \u001b[38;2;128;128;128m•\u001b[0m\u001b[38;2;128;128;128m•\u001b[0m\u001b[38;2;128;128;128m•\u001b[0m\u001b[38;2;128;128;128m•\u001b[0m\u001b[38;2;128;128;128m•\u001b[0m\u001b[38;2;128;128;128m•\u001b[0m\u001b[38;2;128;128;128m•\u001b[0m\u001b[38;2;128;128;128m•\u001b[0m\u001b[38;2;128;128;128m•\u001b[0m\u001b[38;2;128;128;128m•\u001b[0m\u001b[37m•\u001b[0m\u001b[37m•\u001b[0m\u001b[37m•\u001b[0m\u001b[37m•\u001b[0m\u001b[37m•\u001b[0m\u001b[37m•\u001b[0m\u001b[37m•\u001b[0m       \u001b[35m•\u001b[0m Extraction 18.42% (14)\n",
      "       \u001b[38;2;128;128;128m•\u001b[0m\u001b[38;2;128;128;128m•\u001b[0m\u001b[38;2;128;128;128m•\u001b[0m\u001b[38;2;128;128;128m•\u001b[0m\u001b[38;2;128;128;128m•\u001b[0m\u001b[38;2;128;128;128m•\u001b[0m\u001b[38;2;128;128;128m•\u001b[0m\u001b[38;2;128;128;128m•\u001b[0m\u001b[37m•\u001b[0m\u001b[37m•\u001b[0m\u001b[37m•\u001b[0m\u001b[37m•\u001b[0m\u001b[37m•\u001b[0m         \n",
      "           \u001b[38;2;128;128;128m•\u001b[0m\u001b[38;2;128;128;128m•\u001b[0m\u001b[38;2;128;128;128m•\u001b[0m\u001b[38;2;128;128;128m•\u001b[0m\u001b[37m•\u001b[0m             \n"
     ]
    }
   ],
   "source": [
    "!./run_test.sh"
   ]
  }
 ],
 "metadata": {
  "kernelspec": {
   "display_name": ".venv",
   "language": "python",
   "name": "python3"
  },
  "language_info": {
   "codemirror_mode": {
    "name": "ipython",
    "version": 3
   },
   "file_extension": ".py",
   "mimetype": "text/x-python",
   "name": "python",
   "nbconvert_exporter": "python",
   "pygments_lexer": "ipython3",
   "version": "3.10.12"
  }
 },
 "nbformat": 4,
 "nbformat_minor": 5
}
